<?xml version="1.0" encoding="UTF-8" standalone="no"?>
<svg xmlns="http://www.w3.org/2000/svg" viewBox="0 0 30 20" width="20" height="20">
  <rect width="30" height="20" fill="white"/>
  <!-- 14 Red and White Stripes -->
  <rect width="30" height="1.43" y="0" fill="#cc0001"/>
  <rect width="30" height="1.43" y="2.86" fill="#cc0001"/>
  <rect width="30" height="1.43" y="5.72" fill="#cc0001"/>
  <rect width="30" height="1.43" y="8.58" fill="#cc0001"/>
  <rect width="30" height="1.43" y="11.44" fill="#cc0001"/>
  <rect width="30" height="1.43" y="14.3" fill="#cc0001"/>
  <rect width="30" height="1.43" y="17.16" fill="#cc0001"/>
  <!-- Blue Canton -->
  <rect width="15" height="10" fill="#010066"/>
  <!-- Yellow Crescent -->
  <path d="M7.5,3.75 a3.75,3.75 0 1,0 0,2.5 a2.5,2.5 0 1,1 0,-2.5" fill="#fc0"/>
  <!-- Yellow Star -->
  <polygon points="9,5 9.5,6.5 11,6.75 10,7.75 10.25,9.25 9,8.5 7.75,9.25 8,7.75 7,6.75 8.5,6.5" fill="#fc0"/>
</svg> 